<?xml version="1.0" encoding="utf-8"?>
<!-- Generator: Adobe Illustrator 27.3.1, SVG Export Plug-In . SVG Version: 6.00 Build 0)  -->
<svg version="1.1" id="Layer_1" xmlns="http://www.w3.org/2000/svg" xmlns:xlink="http://www.w3.org/1999/xlink" x="0px" y="0px"
	 viewBox="0 0 841.9 166.3" style="enable-background:new 0 0 841.9 166.3;" xml:space="preserve">
<style type="text/css">
	.st0{fill:#FFFFFF;}
	.st1{fill:#9F3BFF;}
	.st2{fill:url(#SVGID_1_);}
</style>
<g id="Affordable_Holidays">
	<g>
		<g transform="translate(235.286886, 85.567459)">
			<g>
				<path class="st0" d="M36.2-7.9H21.2l-2.5,7.2h-8l13.6-37.9h8.8L46.8-0.7h-8L36.2-7.9z M34.2-13.9l-5.5-15.8l-5.5,15.8H34.2z"/>
			</g>
		</g>
	</g>
	<g>
		<g transform="translate(276.95438, 85.567459)">
			<g>
				<path class="st0" d="M24-24.5h-5.3v23.8H11v-23.8H7.6v-6.2H11v-1.5c0-3.7,1-6.4,3.1-8.1c2.1-1.7,5.3-2.5,9.5-2.4v6.4
					c-1.8,0-3.1,0.3-3.9,0.9c-0.7,0.7-1.1,1.8-1.1,3.5v1.2H24V-24.5z"/>
			</g>
		</g>
	</g>
	<g>
		<g transform="translate(297.031597, 85.567459)">
			<g>
				<path class="st0" d="M22.6-24.5h-5.3v23.8H9.6v-23.8H6.2v-6.2h3.4v-1.5c0-3.7,1-6.4,3.1-8.1c2.1-1.7,5.3-2.5,9.5-2.4v6.4
					c-1.8,0-3.1,0.3-3.9,0.9c-0.7,0.7-1.1,1.8-1.1,3.5v1.2h5.3V-24.5z"/>
			</g>
		</g>
	</g>
	<g>
		<g transform="translate(317.108813, 85.567459)">
			<g>
				<path class="st0" d="M20.8-0.2c-2.9,0-5.5-0.6-7.8-1.9c-2.3-1.3-4.1-3.1-5.4-5.5c-1.3-2.3-2-5.1-2-8.1c0-3.1,0.7-5.8,2-8.1
					c1.4-2.4,3.2-4.2,5.6-5.5c2.3-1.3,5-1.9,7.9-1.9c2.9,0,5.5,0.6,7.9,1.9c2.4,1.3,4.2,3.1,5.6,5.5c1.4,2.4,2,5.1,2,8.1
					c0,3.1-0.7,5.8-2.1,8.1c-1.4,2.4-3.3,4.2-5.6,5.5C26.4-0.8,23.7-0.2,20.8-0.2z M20.8-6.8c1.4,0,2.7-0.3,3.9-1
					c1.2-0.7,2.2-1.7,2.9-3c0.7-1.3,1.1-3,1.1-4.9c0-2.9-0.8-5-2.3-6.6c-1.5-1.5-3.3-2.3-5.5-2.3c-2.2,0-4,0.8-5.5,2.3
					c-1.5,1.5-2.2,3.7-2.2,6.6s0.7,5.1,2.1,6.6C16.8-7.5,18.6-6.8,20.8-6.8z"/>
			</g>
		</g>
	</g>
	<g>
		<g transform="translate(354.237105, 85.567459)">
			<g>
				<path class="st0" d="M12.5-26c1-1.6,2.2-2.8,3.8-3.7s3.4-1.4,5.4-1.4v8h-2c-2.4,0-4.2,0.6-5.4,1.7c-1.2,1.1-1.8,3.1-1.8,5.9v15
					H4.9v-30h7.6V-26z"/>
			</g>
		</g>
	</g>
	<g>
		<g transform="translate(377.747815, 85.567459)">
			<g>
				<path class="st0" d="M1.3-15.8c0-3,0.6-5.7,1.8-8.1c1.2-2.3,2.9-4.2,5-5.4c2.1-1.3,4.4-1.9,7-1.9c2,0,3.8,0.4,5.6,1.3
					c1.8,0.8,3.2,2,4.2,3.4v-14.3h7.7v40.1h-7.7v-4.4c-0.9,1.5-2.3,2.7-4,3.6c-1.7,0.9-3.7,1.4-5.9,1.4c-2.5,0-4.8-0.6-6.9-2
					C6-3.4,4.4-5.3,3.2-7.6C1.9-10,1.3-12.7,1.3-15.8z M25-15.7c0-1.8-0.4-3.4-1.1-4.7c-0.7-1.3-1.7-2.3-2.9-3
					c-1.2-0.7-2.5-1.1-4-1.1c-1.4,0-2.7,0.3-3.9,1c-1.2,0.7-2.2,1.7-2.9,3c-0.7,1.3-1.1,2.9-1.1,4.7c0,1.8,0.4,3.4,1.1,4.7
					c0.7,1.4,1.7,2.4,2.9,3.1c1.2,0.7,2.5,1.1,3.9,1.1c1.4,0,2.7-0.3,4-1c1.2-0.7,2.2-1.7,2.9-3C24.6-12.2,25-13.8,25-15.7z"/>
			</g>
		</g>
	</g>
	<g>
		<g transform="translate(417.203904, 85.567459)">
			<g>
				<path class="st0" d="M-1.4-15.8c0-3,0.6-5.7,1.8-8.1c1.2-2.3,2.9-4.2,4.9-5.4c2.1-1.3,4.4-1.9,7-1.9c2.2,0,4.2,0.5,5.9,1.4
					c1.7,0.9,3,2,4,3.4v-4.3h7.6v30h-7.6V-5c-1,1.4-2.3,2.6-4,3.5c-1.7,0.9-3.7,1.4-5.9,1.4c-2.5,0-4.8-0.6-6.9-2
					C3.3-3.4,1.7-5.3,0.5-7.6C-0.8-10-1.4-12.7-1.4-15.8z M22.3-15.7c0-1.8-0.4-3.4-1.1-4.7c-0.7-1.3-1.7-2.3-2.9-3
					c-1.2-0.7-2.5-1.1-4-1.1c-1.4,0-2.7,0.3-3.9,1c-1.2,0.7-2.2,1.7-2.9,3c-0.7,1.3-1.1,2.9-1.1,4.7c0,1.8,0.4,3.4,1.1,4.7
					c0.7,1.4,1.7,2.4,2.9,3.1c1.2,0.7,2.5,1.1,3.9,1.1c1.4,0,2.7-0.3,4-1c1.2-0.7,2.2-1.7,2.9-3C21.9-12.2,22.3-13.8,22.3-15.7z"/>
			</g>
		</g>
	</g>
	<g>
		<g transform="translate(456.659994, 85.567459)">
			<g>
				<path class="st0" d="M5.5-26.3c1-1.4,2.3-2.6,4-3.5c1.7-0.9,3.7-1.4,5.9-1.4c2.6,0,4.9,0.6,7,1.9c2.1,1.3,3.7,3.1,4.9,5.4
					c1.2,2.3,1.8,5,1.8,8.1c0,3.1-0.6,5.8-1.8,8.2c-1.2,2.4-2.9,4.2-4.9,5.5c-2.1,1.3-4.4,2-7,2c-2.2,0-4.2-0.4-5.9-1.3
					c-1.7-0.9-3-2-4-3.5v4.3h-7.6v-40.1h7.6V-26.3z M21.4-15.8c0-1.8-0.4-3.4-1.1-4.7c-0.7-1.3-1.7-2.3-2.9-3c-1.2-0.7-2.5-1-3.9-1
					c-1.4,0-2.7,0.4-3.9,1.1c-1.2,0.7-2.2,1.7-2.9,3.1c-0.7,1.3-1.1,2.9-1.1,4.7s0.4,3.4,1.1,4.7c0.7,1.3,1.7,2.4,2.9,3.1
					c1.2,0.7,2.5,1,3.9,1c1.4,0,2.7-0.4,3.9-1.1c1.2-0.7,2.2-1.8,2.9-3.1C21-12.3,21.4-13.9,21.4-15.8z"/>
			</g>
		</g>
	</g>
	<g>
		<g transform="translate(496.116083, 85.567459)">
			<g>
				<path class="st0" d="M2.8-40.8v40.1h-7.6v-40.1H2.8z"/>
			</g>
		</g>
	</g>
	<g>
		<g transform="translate(512.294236, 85.567459)">
			<g>
				<path class="st0" d="M22-16.3c0,1.1-0.1,2.1-0.2,2.9h-22C0-11.2,0.8-9.5,2.1-8.3c1.3,1.2,3,1.8,4.9,1.8c2.8,0,4.8-1.2,6-3.6h8.2
					c-0.9,2.9-2.5,5.3-5,7.1c-2.5,1.9-5.5,2.8-9.1,2.8c-2.9,0-5.5-0.6-7.8-1.9c-2.3-1.3-4.1-3.1-5.4-5.5c-1.3-2.3-1.9-5.1-1.9-8.1
					c0-3.1,0.6-5.8,1.9-8.2c1.3-2.3,3-4.2,5.3-5.4c2.3-1.3,4.9-1.9,7.9-1.9c2.9,0,5.4,0.6,7.7,1.8c2.3,1.2,4,3,5.3,5.2
					C21.4-21.8,22-19.2,22-16.3z M14.2-18.5c0-2-0.7-3.5-2.1-4.7c-1.4-1.2-3.1-1.8-5-1.8c-1.9,0-3.5,0.6-4.8,1.7
					c-1.3,1.1-2.1,2.7-2.3,4.7H14.2z"/>
			</g>
		</g>
	</g>
	<g>
		<g transform="translate(562.05078, 85.567459)">
			<g>
				<path class="st0" d="M22.1-38.5v37.8h-7.6v-16.1H-1.7v16.1h-7.6v-37.8h7.6v15.6h16.2v-15.6H22.1z"/>
			</g>
		</g>
	</g>
	<g>
		<g transform="translate(603.776465, 85.567459)">
			<g>
				<path class="st0" d="M1.2-0.2c-2.9,0-5.5-0.6-7.8-1.9c-2.3-1.3-4.1-3.1-5.4-5.5c-1.3-2.3-2-5.1-2-8.1c0-3.1,0.7-5.8,2-8.1
					c1.4-2.4,3.2-4.2,5.6-5.5c2.3-1.3,5-1.9,7.9-1.9c2.9,0,5.5,0.6,7.9,1.9c2.4,1.3,4.2,3.1,5.6,5.5c1.4,2.4,2,5.1,2,8.1
					c0,3.1-0.7,5.8-2.1,8.1c-1.4,2.4-3.3,4.2-5.6,5.5C6.8-0.8,4.1-0.2,1.2-0.2z M1.2-6.8c1.4,0,2.7-0.3,3.9-1c1.2-0.7,2.2-1.7,2.9-3
					c0.7-1.3,1.1-3,1.1-4.9c0-2.9-0.8-5-2.3-6.6c-1.5-1.5-3.3-2.3-5.5-2.3c-2.2,0-4,0.8-5.5,2.3c-1.5,1.5-2.2,3.7-2.2,6.6
					s0.7,5.1,2.1,6.6C-2.8-7.5-1-6.8,1.2-6.8z"/>
			</g>
		</g>
	</g>
	<g>
		<g transform="translate(640.904743, 85.567459)">
			<g>
				<path class="st0" d="M-7.1-40.8v40.1h-7.6v-40.1H-7.1z"/>
			</g>
		</g>
	</g>
	<g>
		<g transform="translate(657.082896, 85.567459)">
			<g>
				<path class="st0" d="M-11.9-34.3c-1.3,0-2.5-0.4-3.3-1.3c-0.9-0.9-1.3-1.9-1.3-3.2c0-1.3,0.4-2.3,1.3-3.2c0.9-0.9,2-1.3,3.3-1.3
					c1.3,0,2.4,0.4,3.3,1.3c0.9,0.8,1.3,1.9,1.3,3.2c0,1.3-0.4,2.3-1.3,3.2C-9.5-34.7-10.6-34.3-11.9-34.3z M-8.2-30.7v30h-7.6v-30
					H-8.2z"/>
			</g>
		</g>
	</g>
	<g>
		<g transform="translate(673.261048, 85.567459)">
			<g>
				<path class="st0" d="M-18.9-15.8c0-3,0.6-5.7,1.8-8.1c1.2-2.3,2.9-4.2,5-5.4c2.1-1.3,4.4-1.9,7-1.9c2,0,3.8,0.4,5.6,1.3
					c1.8,0.8,3.2,2,4.2,3.4v-14.3h7.7v40.1H4.7v-4.4c-0.9,1.5-2.3,2.7-4,3.6c-1.7,0.9-3.7,1.4-5.9,1.4c-2.5,0-4.8-0.6-6.9-2
					c-2.1-1.3-3.8-3.1-5-5.5C-18.3-10-18.9-12.7-18.9-15.8z M4.8-15.7c0-1.8-0.4-3.4-1.1-4.7c-0.7-1.3-1.7-2.3-2.9-3
					c-1.2-0.7-2.5-1.1-4-1.1c-1.4,0-2.7,0.3-3.9,1c-1.2,0.7-2.2,1.7-2.9,3c-0.7,1.3-1.1,2.9-1.1,4.7c0,1.8,0.4,3.4,1.1,4.7
					c0.7,1.4,1.7,2.4,2.9,3.1c1.2,0.7,2.5,1.1,3.9,1.1c1.4,0,2.7-0.3,4-1C2-8.6,3-9.6,3.7-10.9C4.4-12.2,4.8-13.8,4.8-15.7z"/>
			</g>
		</g>
	</g>
	<g>
		<g transform="translate(712.717124, 85.567459)">
			<g>
				<path class="st0" d="M-21.6-15.8c0-3,0.6-5.7,1.8-8.1c1.2-2.3,2.9-4.2,4.9-5.4c2.1-1.3,4.4-1.9,7-1.9c2.2,0,4.2,0.5,5.9,1.4
					c1.7,0.9,3,2,4,3.4v-4.3h7.6v30H2.1V-5c-1,1.4-2.3,2.6-4,3.5c-1.7,0.9-3.7,1.4-5.9,1.4c-2.5,0-4.8-0.6-6.9-2
					c-2.1-1.3-3.7-3.1-4.9-5.5C-20.9-10-21.6-12.7-21.6-15.8z M2.1-15.7c0-1.8-0.4-3.4-1.1-4.7c-0.7-1.3-1.7-2.3-2.9-3
					c-1.2-0.7-2.5-1.1-4-1.1c-1.4,0-2.7,0.3-3.9,1c-1.2,0.7-2.2,1.7-2.9,3c-0.7,1.3-1.1,2.9-1.1,4.7c0,1.8,0.4,3.4,1.1,4.7
					C-12-9.7-11-8.6-9.8-7.9c1.2,0.7,2.5,1.1,3.9,1.1c1.4,0,2.7-0.3,4-1c1.2-0.7,2.2-1.7,2.9-3C1.7-12.2,2.1-13.8,2.1-15.7z"/>
			</g>
		</g>
	</g>
	<g>
		<g transform="translate(752.173201, 85.567459)">
			<g>
				<path class="st0" d="M6.4-30.7l-18.6,44.3h-8.1l6.5-15l-12-29.3h8.5l7.8,21l7.9-21H6.4z"/>
			</g>
		</g>
	</g>
	<g>
		<g transform="translate(787.381062, 85.567459)">
			<g>
				<path class="st0" d="M-13.2-0.2c-2.5,0-4.7-0.4-6.6-1.3c-2-0.9-3.5-2.1-4.6-3.6c-1.1-1.5-1.8-3.2-1.9-5.1h7.7
					C-18.5-9-18-8-17-7.3c1,0.8,2.2,1.1,3.7,1.1c1.4,0,2.6-0.3,3.4-0.9c0.8-0.6,1.2-1.3,1.2-2.2c0-1-0.5-1.7-1.5-2.2
					c-1-0.5-2.6-1-4.7-1.6c-2.2-0.5-4.1-1.1-5.5-1.7c-1.4-0.6-2.7-1.5-3.7-2.7c-1-1.2-1.5-2.8-1.5-4.8c0-1.7,0.5-3.2,1.4-4.5
					c1-1.4,2.3-2.5,4.1-3.3c1.8-0.8,3.9-1.2,6.3-1.2c3.6,0,6.4,0.9,8.6,2.7c2.1,1.8,3.3,4.2,3.5,7.2h-7.3c-0.1-1.2-0.6-2.1-1.5-2.8
					c-0.9-0.7-2.1-1.1-3.5-1.1c-1.4,0-2.4,0.3-3.2,0.8c-0.7,0.5-1.1,1.2-1.1,2.1c0,1,0.5,1.8,1.5,2.3c1,0.5,2.6,1.1,4.7,1.6
					c2.2,0.5,3.9,1.1,5.4,1.7C-5.2-16.1-4-15.2-3-14c1,1.2,1.6,2.8,1.6,4.8c0,1.7-0.5,3.3-1.4,4.7c-1,1.4-2.3,2.4-4.1,3.2
					C-8.7-0.5-10.8-0.2-13.2-0.2z"/>
			</g>
		</g>
	</g>
</g>
<g id="Powered_By">
	<g>
		<g transform="translate(273.15215, 161.848977)">
			<g>
				<path class="st0" d="M-0.7-12.8v6.5h-2.1v-16.2h5.2c1.9,0,3.2,0.4,4.2,1.3c0.9,0.9,1.4,2,1.4,3.6c0,1.5-0.5,2.7-1.4,3.6
					c-1,0.8-2.3,1.3-4.1,1.3H-0.7z M2.2-14.5c1.3,0,2.2-0.3,2.8-0.8c0.6-0.5,0.8-1.3,0.8-2.3c0-1-0.3-1.8-0.8-2.3
					c-0.6-0.5-1.5-0.8-2.8-0.8h-2.9v6.2H2.2z"/>
			</g>
		</g>
	</g>
	<g>
		<g transform="translate(287.261915, 161.848977)">
			<g>
				<path class="st0" d="M2-19.1c1.2,0,2.3,0.3,3.3,0.8c1,0.5,1.7,1.3,2.3,2.3c0.5,1,0.8,2.1,0.8,3.5c0,1.3-0.3,2.5-0.8,3.5
					c-0.5,1-1.3,1.7-2.3,2.2c-1,0.5-2,0.8-3.3,0.8c-1.2,0-2.3-0.3-3.3-0.8c-1-0.5-1.7-1.3-2.3-2.2c-0.6-1-0.8-2.1-0.8-3.5
					c0-1.3,0.3-2.5,0.8-3.5c0.6-1,1.3-1.7,2.3-2.3C-0.3-18.8,0.7-19.1,2-19.1z M2-17.2c-0.7,0-1.4,0.2-2.1,0.5
					c-0.6,0.3-1.2,0.9-1.5,1.6c-0.4,0.7-0.6,1.6-0.6,2.6c0,1,0.2,1.9,0.6,2.6c0.4,0.7,0.9,1.2,1.5,1.6C0.5-8.1,1.2-7.9,2-7.9
					c0.8,0,1.4-0.2,2.1-0.5C4.7-8.8,5.2-9.3,5.6-10c0.4-0.7,0.6-1.6,0.6-2.6c0-1-0.2-1.9-0.6-2.6c-0.4-0.7-0.9-1.2-1.5-1.6
					C3.4-17.1,2.7-17.2,2-17.2z"/>
			</g>
		</g>
	</g>
	<g>
		<g transform="translate(303.15084, 161.848977)">
			<g>
				<path class="st0" d="M12.5-18.9L8.9-6.3H6.6L3.1-16.6L-0.4-6.3h-2.3l-3.6-12.6h2.1l2.7,10.6l3.5-10.6h2.2L7.8-8.3l2.7-10.6H12.5
					z"/>
			</g>
		</g>
	</g>
	<g>
		<g transform="translate(323.883043, 161.848977)">
			<g>
				<path class="st0" d="M5.4-13.3c0,0.4,0,0.8-0.1,1.2H-4.8c0,1.4,0.5,2.5,1.2,3.2c0.8,0.7,1.7,1.1,2.8,1.1c1,0,1.9-0.3,2.5-0.8
					C2.5-9.1,2.9-9.8,3-10.6h2.2C5.1-9.8,4.8-9,4.2-8.3C3.7-7.6,3-7.1,2.2-6.7C1.3-6.3,0.4-6.1-0.7-6.1c-1.2,0-2.3-0.3-3.2-0.8
					c-0.9-0.5-1.7-1.3-2.2-2.2c-0.5-1-0.8-2.1-0.8-3.5c0-1.3,0.3-2.5,0.8-3.5c0.5-1,1.3-1.7,2.2-2.3c0.9-0.5,2-0.8,3.2-0.8
					c1.2,0,2.3,0.3,3.2,0.8c0.9,0.5,1.6,1.2,2.1,2.1C5.1-15.3,5.4-14.3,5.4-13.3z M3.2-13.1c0-0.9-0.1-1.7-0.5-2.3
					c-0.3-0.6-0.8-1.1-1.4-1.4c-0.6-0.3-1.3-0.5-2-0.5c-1.2,0-2.1,0.4-2.9,1.1c-0.8,0.7-1.2,1.8-1.3,3.1H3.2z"/>
			</g>
		</g>
	</g>
	<g>
		<g transform="translate(339.302463, 161.848977)">
			<g>
				<path class="st0" d="M-5.2-16.3c0.4-0.9,1-1.6,1.8-2c0.8-0.5,1.7-0.7,2.9-0.7v2.3h-0.6c-1.2,0-2.2,0.3-2.9,0.9
					c-0.7,0.6-1.1,1.6-1.1,3v6.7h-2.1v-12.6h2.1V-16.3z"/>
			</g>
		</g>
	</g>
	<g>
		<g transform="translate(348.791339, 161.848977)">
			<g>
				<path class="st0" d="M3.7-13.3c0,0.4,0,0.8-0.1,1.2H-6.5c0,1.4,0.5,2.5,1.2,3.2c0.8,0.7,1.7,1.1,2.8,1.1c1,0,1.9-0.3,2.5-0.8
					c0.7-0.5,1.1-1.2,1.3-2.1h2.2C3.4-9.8,3.1-9,2.5-8.3C2-7.6,1.3-7.1,0.5-6.7c-0.8,0.4-1.8,0.6-2.9,0.6c-1.2,0-2.3-0.3-3.2-0.8
					c-0.9-0.5-1.7-1.3-2.2-2.2c-0.5-1-0.8-2.1-0.8-3.5c0-1.3,0.3-2.5,0.8-3.5c0.5-1,1.3-1.7,2.2-2.3c0.9-0.5,2-0.8,3.2-0.8
					c1.2,0,2.3,0.3,3.2,0.8c0.9,0.5,1.6,1.2,2.1,2.1C3.4-15.3,3.7-14.3,3.7-13.3z M1.5-13.1c0-0.9-0.1-1.7-0.5-2.3
					c-0.3-0.6-0.8-1.1-1.4-1.4c-0.6-0.3-1.3-0.5-2-0.5c-1.2,0-2.1,0.4-2.9,1.1c-0.8,0.7-1.2,1.8-1.3,3.1H1.5z"/>
			</g>
		</g>
	</g>
	<g>
		<g transform="translate(364.210759, 161.848977)">
			<g>
				<path class="st0" d="M-3.8-19.1c1.2,0,2.3,0.3,3.1,0.9c0.9,0.6,1.4,1.4,1.8,2.5v-7.6h2.1v17H1.1v-3.2C0.7-8.4,0.1-7.6-0.7-7
					c-0.8,0.6-1.9,0.9-3.1,0.9c-1.1,0-2.1-0.3-3-0.8c-0.9-0.5-1.6-1.3-2.1-2.2c-0.5-1-0.7-2.1-0.7-3.5c0-1.3,0.2-2.5,0.7-3.5
					c0.5-1,1.2-1.7,2.1-2.3C-6-18.8-5-19.1-3.8-19.1z M-3.3-17.2c-1.3,0-2.3,0.4-3.1,1.2c-0.8,0.8-1.2,1.9-1.2,3.4
					c0,1.4,0.4,2.6,1.2,3.4c0.8,0.8,1.8,1.2,3.1,1.2c0.8,0,1.6-0.2,2.2-0.6c0.6-0.4,1.2-0.9,1.5-1.6c0.4-0.7,0.6-1.5,0.6-2.4
					c0-0.9-0.2-1.7-0.6-2.4c-0.4-0.7-0.9-1.2-1.5-1.6C-1.7-17-2.4-17.2-3.3-17.2z"/>
			</g>
		</g>
	</g>
	<g>
		<g transform="translate(386.969229, 161.848977)">
			<g>
				<path class="st0" d="M-3.6-19.1c1.1,0,2.1,0.3,3,0.8C0.3-17.8,0.9-17,1.4-16c0.5,1,0.8,2.1,0.8,3.5c0,1.3-0.3,2.5-0.8,3.5
					c-0.5,1-1.2,1.7-2.1,2.2c-0.9,0.5-1.9,0.8-3,0.8c-1.2,0-2.3-0.3-3.1-0.9c-0.9-0.6-1.4-1.4-1.8-2.4v3.2h-2.1v-17h2.1v7.6
					c0.3-1,0.9-1.8,1.8-2.4C-5.9-18.7-4.8-19.1-3.6-19.1z M-4.2-17.2c-0.8,0-1.5,0.2-2.2,0.6c-0.7,0.4-1.2,0.9-1.5,1.6
					c-0.4,0.7-0.6,1.5-0.6,2.4c0,0.9,0.2,1.7,0.6,2.4c0.4,0.7,0.9,1.2,1.5,1.6C-5.7-8.1-5-7.9-4.2-7.9c1.3,0,2.3-0.4,3.1-1.2
					c0.8-0.8,1.2-2,1.2-3.4c0-1.4-0.4-2.6-1.2-3.4C-1.9-16.8-2.9-17.2-4.2-17.2z"/>
			</g>
		</g>
	</g>
	<g>
		<g transform="translate(403.624181, 161.848977)">
			<g>
				<path class="st0" d="M-10.8-18.9L-6.7-9l3.8-9.9h2.3L-8.1-0.3h-2.4l2.6-6.2l-5.3-12.4H-10.8z"/>
			</g>
		</g>
	</g>
</g>
<g id="Logo_00000016057877412068270390000002064558204831035837_">
	<path class="st0" d="M431.8,157.8v-7.1c0-4.8,3.2-9,7.7-10.3c1.5,1.8,2.4,4.2,2.4,6.7C441.8,152.8,437.4,157.4,431.8,157.8
		 M420.3,147.1c0-2.5,0.9-4.9,2.4-6.7c4.4,1.3,7.7,5.4,7.7,10.3v7.1C424.8,157.4,420.3,152.8,420.3,147.1 M431.1,136.4
		c2.8,0,5.4,1.1,7.3,2.9c-3.4,1.2-6.1,3.9-7.3,7.3c-1.2-3.4-3.9-6.1-7.3-7.3C425.7,137.5,428.2,136.4,431.1,136.4 M440.9,140
		c-0.3-0.4-0.6-0.8-1-1.2c-2.2-2.4-5.4-3.8-8.8-3.8s-6.6,1.5-8.8,3.8c-0.4,0.4-0.7,0.8-1,1.2c-1.4,2-2.3,4.4-2.3,7.1
		c0,6.7,5.4,12.1,12.1,12.1s12.1-5.4,12.1-12.1C443.2,144.5,442.3,142,440.9,140"/>
	<path class="st0" d="M478,152.2c1.3,1.3,3.1,2,5.2,2c2.1,0,3.8-0.7,5.2-2c1.3-1.3,2-3,2-5.1c0-2.1-0.7-3.8-2-5.1
		c-1.3-1.3-3.1-2-5.2-2c-2.1,0-3.8,0.7-5.2,2c-1.3,1.3-2,3-2,5.1C476,149.2,476.7,150.9,478,152.2 M489.6,140.8
		c1.7,1.7,2.5,3.8,2.5,6.3c0,2.6-0.8,4.7-2.5,6.3c-1.7,1.7-3.9,2.5-6.5,2.5c-2.6,0-4.8-0.8-6.5-2.5c-1.7-1.7-2.5-3.8-2.5-6.3
		c0-2.6,0.8-4.7,2.5-6.3c1.7-1.7,3.9-2.5,6.5-2.5C485.8,138.3,488,139.1,489.6,140.8"/>
	<path class="st0" d="M524.8,153.9h4.2c2.3,0,4.1-0.6,5.3-1.8c1.2-1.2,1.8-2.9,1.8-5c0-2.1-0.6-3.7-1.8-5c-1.2-1.2-3-1.8-5.3-1.8
		h-4.2V153.9z M529,155.6H523v-17h6.1c2.9,0,5.1,0.8,6.7,2.3c1.6,1.5,2.3,3.6,2.3,6.2c0,2.6-0.8,4.7-2.3,6.2
		C534.1,154.8,531.9,155.6,529,155.6"/>
	<path class="st0" d="M558.3,148.2v-2.6c0-1.7-0.5-3.1-1.4-4.1c-0.9-1-2.3-1.5-4.1-1.5c-1.8,0-3.1,0.5-4.1,1.5
		c-0.9,1-1.4,2.3-1.4,4.1v2.6H558.3z M560.2,155.6h-1.9v-5.7h-11v5.7h-1.8v-10c0-2.3,0.6-4,1.9-5.3c1.3-1.3,3.1-1.9,5.4-1.9
		c2.4,0,4.2,0.6,5.4,1.9c1.3,1.3,1.9,3.1,1.9,5.3V155.6z"/>
	<path class="st0" d="M512.5,148.2v-2.6c0-1.7-0.5-3.1-1.4-4.1c-0.9-1-2.3-1.5-4.1-1.5c-1.8,0-3.1,0.5-4.1,1.5
		c-0.9,1-1.4,2.3-1.4,4.1v2.6v1.7v5.7h-1.8v-10c0-2.3,0.6-4,1.9-5.3c1.3-1.3,3.1-1.9,5.4-1.9c2.4,0,4.2,0.6,5.4,1.9
		c1.3,1.3,1.9,3.1,1.9,5.3v10h-1.9v-5.7V148.2z"/>
	<polygon class="st0" points="463.2,155.6 461.4,155.6 461.4,148.1 454.4,138.6 456.6,138.6 462.3,146.6 462.3,146.6 468,138.6 
		470.2,138.6 463.2,148.1 	"/>
</g>
<path class="st1" d="M768.4,10H232v2.1h536.4c30.5,0,55.4,24.8,55.4,55.4c0,30.5-24.8,55.4-55.4,55.4H232v2.1h536.4
	c31.7,0,57.5-25.7,57.5-57.5v0C825.9,35.7,800.1,10,768.4,10z"/>
<g id="GO_Button_00000093175436893955299420000010879854193841248679_">
	<g>
		
			<linearGradient id="SVGID_1_" gradientUnits="userSpaceOnUse" x1="16.0003" y1="88.4191" x2="226.5838" y2="88.4191" gradientTransform="matrix(1 0 0 -1 0 155.2213)">
			<stop  offset="0" style="stop-color:#9C3BFF"/>
			<stop  offset="0.4586" style="stop-color:#9C3BFF"/>
			<stop  offset="0.8573" style="stop-color:#AD4BFC"/>
			<stop  offset="0.9903" style="stop-color:#AD4BFC"/>
		</linearGradient>
		<path class="st2" d="M169.8,123.6h-97C41.6,123.6,16,98,16,66.8l0,0C16,35.6,41.6,10,72.8,10h97c31.2,0,56.8,25.6,56.8,56.8l0,0
			C226.6,98,201,123.6,169.8,123.6z"/>
		<g>
			<path class="st0" d="M109,46.5c3.8,2.8,6.4,6.7,7.6,11.6h-8.2c-1.1-2.6-2.8-4.7-5.2-6.2c-2.4-1.6-5.2-2.3-8.5-2.3
				c-3,0-5.7,0.7-8.1,2.1c-2.4,1.4-4.3,3.4-5.6,6c-1.3,2.6-2,5.7-2,9.2c0,3.7,0.7,6.9,2.1,9.5c1.4,2.7,3.3,4.7,5.8,6.1
				c2.5,1.4,5.4,2.1,8.7,2.1c4,0,7.5-1.2,10.4-3.7s4.6-5.9,5.2-10.3H93.2v-5.8h24.3v7.5c-0.5,3.6-1.8,6.8-3.8,9.7
				c-2,2.9-4.6,5.2-7.9,7c-3.3,1.7-7,2.6-11.2,2.6c-4.7,0-8.9-1.1-12.5-3.2s-6.4-5-8.4-8.7c-2-3.7-3-8-3-12.8c0-4.8,1-9.1,3-12.8
				c2-3.7,4.7-6.6,8.3-8.7c3.6-2.1,7.7-3.1,12.4-3.1C100.3,42.2,105.1,43.6,109,46.5z"/>
			<path class="st0" d="M160,45.2c3.6,2.1,6.5,5,8.6,8.8c2.1,3.8,3.1,8,3.1,12.8c0,4.8-1,9-3.1,12.8c-2.1,3.8-4.9,6.7-8.6,8.8
				c-3.6,2.1-7.7,3.2-12.2,3.2c-4.5,0-8.6-1.1-12.2-3.2c-3.6-2.1-6.5-5.1-8.6-8.8c-2.1-3.8-3.2-8-3.2-12.8c0-4.8,1.1-9,3.2-12.8
				c2.1-3.8,5-6.7,8.6-8.8c3.6-2.1,7.7-3.2,12.2-3.2C152.3,42,156.4,43.1,160,45.2z M139.6,51.4c-2.4,1.4-4.3,3.5-5.7,6.1
				c-1.4,2.7-2,5.7-2,9.3c0,3.5,0.7,6.6,2,9.3c1.3,2.7,3.2,4.7,5.7,6.1c2.4,1.4,5.2,2.1,8.3,2.1c3.1,0,5.8-0.7,8.2-2.1
				c2.4-1.4,4.3-3.5,5.6-6.1c1.3-2.7,2-5.7,2-9.3c0-3.5-0.7-6.6-2-9.3c-1.3-2.7-3.2-4.7-5.6-6.1c-2.4-1.4-5.1-2.1-8.2-2.1
				C144.8,49.3,142,50,139.6,51.4z"/>
		</g>
	</g>
</g>
</svg>
