<svg width="60" height="60" viewBox="0 0 60 60" fill="none" xmlns="http://www.w3.org/2000/svg">
<path d="M11.1627 60C8.35491 60 6 57.6471 6 54.8416C6 52.0362 8.35491 49.6833 11.1627 49.6833C13.9704 49.6833 16.3253 52.0362 16.3253 54.8416C16.3253 57.6471 13.9704 60 11.1627 60ZM49.8373 60C47.0296 60 44.6747 57.6471 44.6747 54.8416C44.6747 52.0362 47.0296 49.6833 49.8373 49.6833C52.6451 49.6833 55 52.0362 55 54.8416C55 57.6471 52.6451 60 49.8373 60ZM30.3641 60C27.5564 60 25.2015 57.6471 25.2015 54.8416C25.2015 52.0362 27.5564 49.6833 30.3641 49.6833C33.1719 49.6833 35.5268 52.0362 35.5268 54.8416C35.5268 57.6471 33.1719 60 30.3641 60Z" fill="#2C3032"/>
<path d="M51.8297 44.1628C51.8297 44.1628 52.3731 44.1628 52.5542 43.6198C52.7354 43.0768 52.4637 42.4433 52.4637 42.4433L31.9036 0.995472C31.9036 0.995472 31.4507 0 30.2733 0H30.545C29.3676 0 28.9147 0.995472 28.9147 0.995472L8.4452 42.4433C8.4452 42.4433 8.08291 42.9863 8.35463 43.6198C8.53578 44.1628 9.0792 44.1628 9.0792 44.1628H51.8297ZM17.8648 38.0994L30.3639 11.9457L42.863 38.0994H17.8648Z" fill="#2C3032"/>
</svg>
