<svg id="Layer_1" data-name="Layer 1" xmlns="http://www.w3.org/2000/svg" viewBox="0 0 48.7 8.4"><title>Yonda_POS_black</title><path d="M8.4,12.5V10.1A3.8,3.8,0,0,1,11,6.5a3.5,3.5,0,0,1,.9,2.3,3.7,3.7,0,0,1-3.5,3.7M4.5,8.8a4,4,0,0,1,.8-2.3,3.8,3.8,0,0,1,2.6,3.6v2.4A3.6,3.6,0,0,1,4.5,8.8M8.2,5.1a3.9,3.9,0,0,1,2.5,1A4.3,4.3,0,0,0,8.2,8.7,4.7,4.7,0,0,0,5.6,6.1a4,4,0,0,1,2.6-1m3.4,1.3L11.2,6a4.2,4.2,0,0,0-3-1.3A4.4,4.4,0,0,0,5.1,6l-.3.4A4.1,4.1,0,0,0,4,8.8,4.2,4.2,0,0,0,8.2,13a4.1,4.1,0,0,0,4.1-4.2,4,4,0,0,0-.7-2.4" transform="translate(-4 -4.7)"/><path d="M24.4,10.6a2.1,2.1,0,0,0,1.7.7,2.1,2.1,0,0,0,1.8-.7,2.3,2.3,0,0,0,.7-1.8,2.1,2.1,0,0,0-.7-1.7,2.1,2.1,0,0,0-1.8-.7,2.1,2.1,0,0,0-1.7.7,2.1,2.1,0,0,0-.7,1.7,2.3,2.3,0,0,0,.7,1.8m4-3.9a2.7,2.7,0,0,1,.9,2.1,2.8,2.8,0,0,1-.9,2.2,3.2,3.2,0,0,1-2.3.9,2.9,2.9,0,0,1-2.2-.9A2.8,2.8,0,0,1,23,8.8a2.7,2.7,0,0,1,.9-2.1,2.9,2.9,0,0,1,2.2-.9,3.2,3.2,0,0,1,2.3.9" transform="translate(-4 -4.7)"/><path d="M40.5,11.2H42a2.4,2.4,0,0,0,1.8-.6,2.6,2.6,0,0,0,.6-1.8,2.4,2.4,0,0,0-.6-1.7A2.4,2.4,0,0,0,42,6.5H40.5Zm1.5.6H39.9V5.9H42a3.4,3.4,0,0,1,2.3.8,2.9,2.9,0,0,1,.8,2.1,3.3,3.3,0,0,1-.8,2.2,3.4,3.4,0,0,1-2.3.8" transform="translate(-4 -4.7)"/><path d="M52.1,9.2V8.3a2,2,0,0,0-.5-1.4,2.2,2.2,0,0,0-2.8,0,1.6,1.6,0,0,0-.5,1.4v.9Zm.6,2.6h-.6v-2H48.3v2h-.6V8.3a2.4,2.4,0,0,1,.6-1.8,2.9,2.9,0,0,1,3.8,0,2.4,2.4,0,0,1,.6,1.8Z" transform="translate(-4 -4.7)"/><path d="M36.3,9.2V8.3a2,2,0,0,0-.5-1.4,2.2,2.2,0,0,0-1.4-.5,1.8,1.8,0,0,0-1.4.5,1.6,1.6,0,0,0-.5,1.4v3.5h-.7V8.3a2.5,2.5,0,0,1,.7-1.8,2.4,2.4,0,0,1,1.9-.7,2.1,2.1,0,0,1,1.8.7,2.1,2.1,0,0,1,.7,1.8v3.5h-.6V9.2Z" transform="translate(-4 -4.7)"/><polygon points="15.3 7.1 14.6 7.1 14.6 4.5 12.2 1.3 13 1.3 15 4 15 4 16.9 1.3 17.7 1.3 15.3 4.5 15.3 7.1"/></svg>